#!OML:ASF \\sashay\E\Suitcase\Project 1\Capture day 1\Session 1\Male1.ASF
:FULLY-SPECIFIED
:DEGREES
421
root 0.945842 17.4522 -15.7863 8.16289 5.38439 1.35801
lowerback 2.86139 -2.11196 1.03648
upperback 0.332889 -2.74712 2.50975
thorax -1.18678 -1.37217 2.09784
lowerneck -16.3395 0.562293 0.909179
upperneck 11.9049 1.76502 -7.80607
head 6.39137 0.232887 -2.48047
rclavicle -2.26615e-014 2.38542e-015
rhumerus -70.244 -28.2146 -30.1937
rradius 12.763
rwrist 15.6461
rhand -14.622 15.7872
rfingers 7.12502
rthumb 11.5293 -13.8757
lclavicle -2.26615e-014 2.38542e-015
lhumerus -42.6941 5.55721 82.8344
lradius 29.2844
lwrist -12.9159
lhand 1.62163 42.0878
lfingers 7.12502
lthumb 27.1427 70.156
rfemur -27.8043 -3.62681 19.4504
rtibia 17.1953
rfoot -5.72228 -7.83435
rtoes 5.49914
lfemur 9.02426 -7.75027 -25.0762
ltibia 22.3413
lfoot 0.258692 -6.71795
ltoes 12.652
422
root 0.921326 17.4746 -15.6911 8.32262 4.40218 0.806052
lowerback 3.10609 -1.87113 1.31212
upperback 0.301444 -2.4061 2.72229
thorax -1.36797 -1.20235 2.15964
lowerneck -16.3987 0.654015 1.36831
upperneck 11.5216 1.85459 -8.44017
head 6.29522 0.252364 -2.74817
rclavicle 2.46493e-014 -2.3059e-014
rhumerus -69.7331 -28.5177 -30.2628
rradius 12.743
rwrist 15.8273
rhand -14.8667 15.1391
rfingers 7.12502
rthumb 11.2933 -14.5369
lclavicle 2.46493e-014 -2.3059e-014
lhumerus -42.4925 6.12912 82.6062
lradius 29.0902
lwrist -12.707
lhand 1.21649 42.249
lfingers 7.12502
lthumb 26.755 70.3771
rfemur -27.8159 -1.81274 19.8662
rtibia 17.293
rfoot -5.87359 -8.62575
rtoes 6.6252
lfemur 8.17618 -7.03901 -24.4633
ltibia 23.6111
lfoot 1.3847 -6.80353
ltoes 14.4133
423
root 0.91964 17.4879 -15.5578 8.1791 3.76792 0.627486
lowerback 3.29113 -1.74886 1.4986
upperback 0.299714 -2.22724 2.92579
thorax -1.47736 -1.11347 2.26406
lowerneck -16.2668 0.807779 0.608098
upperneck 11.4635 2.17385 -8.0572
head 6.26014 0.408239 -2.46586
rclavicle -4.57205e-015 -3.18055e-015
rhumerus -68.9895 -28.1153 -30.9739
rradius 12.9411
rwrist 15.2688
rhand -14.853 14.9915
rfingers 7.12502
rthumb 11.3065 -14.6837
lclavicle -4.57205e-015 -3.18055e-015
lhumerus -42.7108 6.59999 82.7282
lradius 29.1203
lwrist -12.7256
lhand 1.14682 42.4259
lfingers 7.12502
lthumb 26.6884 70.5642
rfemur -27.424 -2.41901 20.4712
rtibia 17.5382
rfoot -5.66635 -7.2737
rtoes 6.03544
lfemur 7.96722 -6.55066 -24.3996
ltibia 24.6867
lfoot 2.04898 -6.94618
ltoes 14.4482
424
root 0.908288 17.5082 -15.4288 8.11933 3.34871 0.609682
lowerback 3.38162 -1.72556 1.47996
upperback 0.30848 -2.19406 2.93476
thorax -1.51891 -1.09679 2.2853
lowerneck -16.3639 0.915708 1.25206
upperneck 11.3656 2.23684 -8.52035
head 6.26081 0.429803 -2.71419
rclavicle -1.05356e-014 0
rhumerus -68.8531 -28.4701 -30.6011
rradius 12.8911
rwrist 15.9609
rhand -15.0149 15.2582
rfingers 7.12502
rthumb 11.1503 -14.4255
lclavicle -1.05356e-014 0
lhumerus -42.7948 6.641 82.6516
lradius 29.0542
lwrist -12.0739
lhand 1.1354 42.3224
lfingers 7.12502
lthumb 26.6774 70.4624
rfemur -26.8424 -2.19 20.6032
rtibia 17.3644
rfoot -5.61629 -6.90709
rtoes 6.80477
lfemur 7.27948 -6.02363 -24.3033
ltibia 26.1979
lfoot 2.83117 -7.05181
ltoes 14.7446
425
root 0.888384 17.5245 -15.2823 8.09022 2.90184 0.432225
lowerback 3.01511 -1.59505 1.53235
upperback 0.458676 -2.03508 3.0194
thorax -1.16266 -1.01813 2.32046
lowerneck -16.2168 1.06064 1.02872
upperneck 11.2709 2.44259 -8.30027
head 6.21095 0.543375 -2.58402
rclavicle 1.92821e-014 6.36111e-015
rhumerus -67.929 -28.2869 -31.9382
rradius 12.9817
rwrist 14.9654
rhand -15.2074 14.832
rfingers 7.12502
rthumb 10.9647 -14.8617
lclavicle 1.92821e-014 6.36111e-015
lhumerus -42.7441 6.20279 82.932
lradius 29.3542
lwrist -11.1487
lhand 0.851239 43.1139
lfingers 7.12502
lthumb 26.4055 71.2949
rfemur -26.4543 -1.83825 20.9363
rtibia 17.5592
rfoot -5.50873 -6.74721
rtoes 8.0356
lfemur 6.82108 -5.34153 -23.9616
ltibia 27.5009
lfoot 3.7144 -7.12024
ltoes 14.0993
426
root 0.883803 17.5441 -15.1663 8.27201 2.71924 0.430014
lowerback 2.9726 -1.57278 1.59061
upperback 0.327728 -1.99981 3.07956
thorax -1.27415 -1.00047 2.3498
lowerneck -16.2123 1.07647 1.35038
upperneck 11.35 2.4589 -8.71135
head 6.24655 0.529761 -2.7688
rclavicle 1.96797e-014 -1.35174e-014
rhumerus -67.2351 -28.009 -32.9167
rradius 13.1951
rwrist 14.1637
rhand -15.6924 14.3493
rfingers 7.12502
rthumb 10.4969 -15.3686
lclavicle 1.96797e-014 -1.35174e-014
lhumerus -42.9937 6.28914 82.9677
lradius 29.7262
lwrist -11.2516
lhand 1.14068 42.7583
lfingers 7.12502
lthumb 26.6825 70.8974
rfemur -26.2663 -2.22877 21.1833
rtibia 17.6188
rfoot -5.55178 -6.01327
rtoes 9.75652
lfemur 5.82622 -5.19371 -23.8642
ltibia 28.9873
lfoot 4.96084 -7.32318
ltoes 16.8357
427
root 0.861854 17.56 -15.0367 8.36311 2.26403 0.44095
lowerback 2.88927 -1.529 1.28169
upperback 0.249383 -1.94984 3.25848
thorax -1.29278 -0.973749 2.7045
lowerneck -15.8546 1.23489 0.864195
upperneck 11.2972 2.72773 -8.39798
head 6.17324 0.673447 -2.5592
rclavicle -2.10712e-014 1.66979e-014
rhumerus -66.8672 -28.2078 -32.5418
rradius 13.1146
rwrist 14.7681
rhand -15.7317 14.3889
rfingers 7.12502
rthumb 10.459 -15.3309
lclavicle -2.10712e-014 1.66979e-014
lhumerus -43.1079 6.09339 83.3002
lradius 29.8073
lwrist -10.5224
lhand 0.856497 42.4127
lfingers 7.12502
lthumb 26.4105 70.593
rfemur -26.0162 -1.70856 21.2886
rtibia 17.6774
rfoot -5.40626 -6.02726
rtoes 10.4732
lfemur 5.01707 -4.40006 -23.6667
ltibia 30.5905
lfoot 5.44412 -7.41596
ltoes 15.6076
428
root 0.848455 17.5721 -14.9001 8.26689 2.08645 0.206486
lowerback 2.61736 -1.53779 1.54089
upperback 0.352961 -1.96587 3.3525
thorax -1.03896 -0.983501 2.64584
lowerneck -15.7564 1.12385 1.28984
upperneck 11.2125 2.56883 -9.03187
head 6.13768 0.568699 -2.84847
rclavicle -6.36111e-015 5.56597e-015
rhumerus -66.0669 -28.2359 -33.3848
rradius 13.2449
rwrist 14.4678
rhand -15.9705 14.3771
rfingers 7.12502
rthumb 10.2286 -15.3542
lclavicle -6.36111e-015 5.56597e-015
lhumerus -43.3261 5.25889 83.7898
lradius 30.5017
lwrist -9.59735
lhand 1.30965 43.5355
lfingers 7.12502
lthumb 26.8442 71.6499
rfemur -25.3682 -1.50082 21.661
rtibia 17.5837
rfoot -5.15241 -5.78115
rtoes 12.1169
lfemur 4.25166 -3.85563 -23.2166
ltibia 32.3389
lfoot 5.90754 -7.35318
ltoes 15.8336
429
root 0.831469 17.591 -14.7847 8.38962 1.96759 0.242478
lowerback 2.65379 -1.52589 1.4355
upperback 0.190367 -1.94513 3.42
thorax -1.22115 -0.971994 2.77844
lowerneck -15.7375 1.34736 1.18007
upperneck 11.3447 2.91831 -9.10167
head 6.19654 0.723834 -2.81915
rclavicle -3.77691e-015 6.36111e-015
rhumerus -65.4863 -28.0606 -34.0445
rradius 13.266
rwrist 14.1967
rhand -16.1695 13.9727
rfingers 7.12502
rthumb 10.0367 -15.768
lclavicle -3.77691e-015 6.36111e-015
lhumerus -43.3401 5.13387 83.9226
lradius 30.565
lwrist -9.51903
lhand 1.06511 42.4776
lfingers 7.12502
lthumb 26.6102 70.6278
rfemur -25.1501 -1.24792 21.7282
rtibia 17.6101
rfoot -4.98067 -5.7846
rtoes 12.3065
lfemur 3.19538 -3.40064 -23.0074
ltibia 34.1265
lfoot 7.13643 -7.80476
ltoes 15.5971
